<svg height="75.739" viewBox="0 0 94.035 75.739" width="94.035" xmlns="http://www.w3.org/2000/svg"><g transform="translate(-2.272 -2.272)"><path d="m26.654 30.329a22.445 22.445 0 1 1 22.446 22.443 22.444 22.444 0 0 1 -22.446-22.443" fill="#30a32d"/><path d="m49.426 10.666s-18.9 11.394-6.439 30.8c0 0-7.206-3.631-8.793-14.217-.048-.438-.565-.959-.939.105-3.743 10.695 1.845 24.124 17.109 23.476 15.388-.654 18.88-18.325 10.955-29.239-.287-.447-.7-.563-.463.3 1.539 5.579-1.024 12.124-1.939 13.605 4.6-15.113-8.475-24.7-9.491-24.828" fill="#fff"/><path d="m89.021 77.7v-13.756h7.209v1.033h-6.039v5.085h5.63v1.032h-5.63v5.573h6.116v1.033zm-7.14.235a4.013 4.013 0 0 1 -4.014-2.455 5.787 5.787 0 0 1 -.33-1.813h1.169a3.051 3.051 0 0 0 3.234 3.215 2.831 2.831 0 0 0 3.078-2.708 2.457 2.457 0 0 0 -1.091-2.045 18.513 18.513 0 0 0 -3.215-1.657 7.6 7.6 0 0 1 -1.364-.741 3.1 3.1 0 0 1 -1.363-2.61c0-2.221 1.948-3.41 3.973-3.41a3.62 3.62 0 0 1 3.742 2.572 4.863 4.863 0 0 1 .136 1.052h-1.15a3.256 3.256 0 0 0 -.311-1.209 2.69 2.69 0 0 0 -2.513-1.363 2.456 2.456 0 0 0 -2.67 2.3c0 3.077 7.054 2.435 7.054 7.032 0 2.494-2.046 3.839-4.365 3.839m-10.776 0a4.012 4.012 0 0 1 -4.013-2.455 5.732 5.732 0 0 1 -.332-1.813h1.169a3.053 3.053 0 0 0 3.235 3.215 2.831 2.831 0 0 0 3.079-2.708 2.457 2.457 0 0 0 -1.091-2.045 18.621 18.621 0 0 0 -3.215-1.657 7.562 7.562 0 0 1 -1.364-.741 3.091 3.091 0 0 1 -1.364-2.61c0-2.221 1.949-3.41 3.974-3.41a3.618 3.618 0 0 1 3.741 2.573 4.863 4.863 0 0 1 .136 1.052h-1.15a3.237 3.237 0 0 0 -.311-1.209 2.687 2.687 0 0 0 -2.512-1.363 2.456 2.456 0 0 0 -2.67 2.3c0 3.077 7.052 2.435 7.052 7.032 0 2.494-2.045 3.839-4.364 3.839m-8.671-13.99h1.208v13.756h-1.208zm-3.664 10.638c-.39 2.358-2.376 3.352-4.6 3.352-1.89 0-3.838-.76-4.462-2.709a5.752 5.752 0 0 1 -.214-1.831v-9.449h1.169c0 3.077-.02 6.136-.02 9.216a4.632 4.632 0 0 0 .467 2.279 3.339 3.339 0 0 0 3.06 1.441 4.736 4.736 0 0 0 2.065-.486c1.618-.839 1.423-2.591 1.423-4.131v-8.319h1.189v9.41a8.551 8.551 0 0 1 -.079 1.227m-16.23 3.352a4.012 4.012 0 0 1 -4.013-2.455 5.732 5.732 0 0 1 -.332-1.813h1.169a3.053 3.053 0 0 0 3.238 3.215 2.831 2.831 0 0 0 3.079-2.708 2.457 2.457 0 0 0 -1.091-2.045 18.585 18.585 0 0 0 -3.215-1.657 7.5 7.5 0 0 1 -1.364-.741 3.091 3.091 0 0 1 -1.364-2.61c0-2.221 1.948-3.41 3.974-3.41a3.618 3.618 0 0 1 3.741 2.573 4.742 4.742 0 0 1 .136 1.052h-1.151a3.278 3.278 0 0 0 -.313-1.209 2.687 2.687 0 0 0 -2.512-1.363 2.456 2.456 0 0 0 -2.67 2.3c0 3.077 7.05 2.437 7.05 7.037 0 2.494-2.046 3.839-4.365 3.839m-12.989-11.487c-2.417 0-3.158 2.359-3.158 4.366 0 2.067.721 4.367 3.2 4.367 2.4 0 3.158-2.282 3.158-4.308 0-2.086-.683-4.425-3.2-4.425m.019 11.559c-4.288 0-6.958-2.983-6.958-7.193 0-4.248 2.65-7.192 6.978-7.192 4.287 0 6.958 3 6.958 7.192 0 4.21-2.69 7.193-6.978 7.193m-12.882-14.072h3.646v13.761h-3.646zm-8.3 7.912h-2.543v3.158h2.68c1.131 0 2.183-.194 2.183-1.559 0-1.462-1.15-1.6-2.32-1.6m-.176-5.242h-2.367v2.692h2.116c1.012 0 2.085-.1 2.085-1.384 0-1.13-.9-1.305-1.834-1.305m4.269 10.33a9.725 9.725 0 0 1 -4.541.76h-5.663v-13.762h5.644c1.735 0 3.9.039 5.066 1.559a3.262 3.262 0 0 1 .645 2.026 2.757 2.757 0 0 1 -2.047 2.767 3.31 3.31 0 0 1 2.846 3.334 3.765 3.765 0 0 1 -1.95 3.314" fill="#30a32d"/><path d="m83.41 17.361a52.088 52.088 0 0 0 -.323-5.388 32.99 32.99 0 0 1 -2.662 2.69c-.2-1.687-.532-3.255-.72-4.3-1.362 1.412-1.945 2.02-3.087 3.12a36.813 36.813 0 0 1 .468 3.737c-1.143.853-2.259 1.6-3.313 2.263.154 1.83.213 2.811.325 4.456.26-.149 1.682-1.1 3.275-2.125.023 1.673.07 3.238.006 4.605a16.324 16.324 0 0 0 3.509-2.48 28.438 28.438 0 0 0 .015-4.61 12.983 12.983 0 0 0 2.506-1.966" fill="#fff"/><path d="m83.411 17.2a19.989 19.989 0 0 1 -2.669 2.085 28.148 28.148 0 0 1 -.043 4.49 13.611 13.611 0 0 1 -3.114 2.311c.032-1.354.008-2.969-.064-4.625-1.61 1.058-2.976 1.92-3.226 2.068-.1-1.572-.135-2.135-.281-3.882 1.005-.64 2.12-1.417 3.243-2.261-.13-1.461-.291-2.8-.476-3.821 1.049-1.071 1.595-1.581 2.844-2.956.207 1.05.471 2.582.7 4.3a32.889 32.889 0 0 0 2.794-2.7 46.974 46.974 0 0 0 -1.972-9.435l-.177-.5-.258.459s-.083.147-.245.416c-1.076 1.791-5.603 8.951-11.687 13.437a23.993 23.993 0 0 1 3.866 18.451q1.276-.663 2.681-1.42a23.871 23.871 0 0 0 4.55-2.986 10.367 10.367 0 0 0 2.778-5.216v-.006-.009a40.273 40.273 0 0 0 .754-7.912c0-.1 0-.2 0-.292m-55.859 23.734c-8.362 4.567-6.28 9.9-.061 12.861 7.335 3.5 21.992 5.222 29.051 2.47-13 .7-24.613-3.861-28.99-15.331" fill="#e2001a"/></g></svg>